<svg xmlns="http://www.w3.org/2000/svg" xmlns:xlink="http://www.w3.org/1999/xlink" width="840" height="559.3299999999999"><defs><style>
@keyframes fxJitterShake {
  0%, 88%, 100% { transform: translate(0,0); }
  89% { transform: translate(2px,0); } 90% { transform: translate(-3px,0); }
  91% { transform: translate(2px,-1px); } 92% { transform: translate(0,0); }
}
.fxGlitchJitter { animation: fxJitterShake 3.4s steps(1,end) infinite; }
@keyframes fxGlitchBar {
  0%, 88%, 100% { transform: translate(0,0); opacity: 0; }
  89% { transform: translate(-5px,0); opacity: 0.55; }
  90% { transform: translate(4px,0); opacity: 0.5; }
  91% { transform: translate(-2px,0); opacity: 0.4; }
  92% { transform: translate(0,0); opacity: 0; }
}
.fxGlitchBar { animation: fxGlitchBar 3.4s steps(1,end) infinite; mix-blend-mode: screen; }
.fxGlitchBar.fxB2 { animation-delay: 1.2s; }
</style></defs><g class="fxGlitchJitter"><rect width="840" height="559.3299999999999" rx="5" ry="5" class="a"></rect><svg y="0%" x="0%"><circle cx="20" cy="20" r="6" class="b"></circle><circle cx="40" cy="20" r="6" class="c"></circle><circle cx="60" cy="20" r="6" class="d"></circle></svg><svg height="499.33" viewBox="0 0 80 49.933" width="800" x="15" xmlns="http://www.w3.org/2000/svg" xmlns:xlink="http://www.w3.org/1999/xlink" y="50"><style>.a{fill:rgb(40,42,54)}.b{fill:#ff5f58}.c{fill:#ffbd2e}.d{fill:#18c132}.e{font-family:Monaco,Consolas,Menlo,'Bitstream Vera Sans Mono','Powerline Symbols',monospace}.f{fill:rgb(255,121,198);white-space:pre}.g{fill:rgb(248,248,242);white-space:pre}.h{fill:rgb(139,233,253);white-space:pre}.i{fill:rgb(80,250,123);white-space:pre}.j{fill:rgb(241,250,140);white-space:pre}.k{fill:transparent}.l{fill:rgb(248,248,242)}.n{animation-duration:10.619999999999989s;animation-iteration-count:infinite;animation-name:m;animation-timing-function:steps(1,end)}@keyframes m{0%{transform:translateX(-0px)}0%{transform:translateX(-80px)}1.9%{transform:translateX(-160px)}2.8%{transform:translateX(-240px)}3.8%{transform:translateX(-320px)}4.7%{transform:translateX(-400px)}5.6%{transform:translateX(-480px)}6.6%{transform:translateX(-560px)}9.4%{transform:translateX(-640px)}14.1%{transform:translateX(-720px)}23.7%{transform:translateX(-800px)}25.6%{transform:translateX(-880px)}26.6%{transform:translateX(-960px)}27.5%{transform:translateX(-1040px)}28.4%{transform:translateX(-1120px)}29.4%{transform:translateX(-1200px)}30.3%{transform:translateX(-1280px)}31.3%{transform:translateX(-1360px)}32.2%{transform:translateX(-1440px)}35%{transform:translateX(-1520px)}39.7%{transform:translateX(-1600px)}39.9%{transform:translateX(-1680px)}40.1%{transform:translateX(-1760px)}40.3%{transform:translateX(-1840px)}40.5%{transform:translateX(-1920px)}40.7%{transform:translateX(-2000px)}40.9%{transform:translateX(-2080px)}41.1%{transform:translateX(-2160px)}41.2%{transform:translateX(-2240px)}41.4%{transform:translateX(-2320px)}41.6%{transform:translateX(-2400px)}51.2%{transform:translateX(-2480px)}53.1%{transform:translateX(-2560px)}54%{transform:translateX(-2640px)}55%{transform:translateX(-2720px)}55.9%{transform:translateX(-2800px)}56.9%{transform:translateX(-2880px)}57.8%{transform:translateX(-2960px)}58.8%{transform:translateX(-3040px)}59.7%{transform:translateX(-3120px)}60.6%{transform:translateX(-3200px)}63.5%{transform:translateX(-3280px)}68.2%{transform:translateX(-3360px)}68.4%{transform:translateX(-3440px)}68.5%{transform:translateX(-3520px)}78.2%{transform:translateX(-3600px)}80%{transform:translateX(-3680px)}81%{transform:translateX(-3760px)}81.9%{transform:translateX(-3840px)}82.9%{transform:translateX(-3920px)}85.7%{transform:translateX(-4000px)}90.4%{transform:translateX(-4080px)}100%{transform:translateX(-4160px)}}</style><g font-family="Monaco, Consolas, Menlo, &#x27;Bitstream Vera Sans Mono&#x27;, &#x27;Powerline Symbols&#x27;, monospace" font-size="1.67" class="e"><defs><symbol id="1"><text x="0" y="1.67" class="f">GermanAndresLopez@github.com</text><text x="28.055999999999997" y="1.67" class="g">:</text><text x="29.058" y="1.67" class="h">~</text><text x="30.059999999999995" y="1.67" class="i">$</text></symbol><symbol id="2"><text x="0" y="1.67" class="f">GermanAndresLopez@github.com</text><text x="28.055999999999997" y="1.67" class="g">:</text><text x="29.058" y="1.67" class="h">~</text><text x="30.059999999999995" y="1.67" class="i">$</text><text x="32.064" y="1.67" class="g">whoami</text></symbol><symbol id="3"><text x="0" y="1.67" class="g">John</text><text x="5.01" y="1.67" class="g">Doe</text></symbol><symbol id="4"><text x="0" y="1.67" class="f">GermanAndresLopez@github.com</text><text x="28.055999999999997" y="1.67" class="g">:</text><text x="29.058" y="1.67" class="h">~</text><text x="30.059999999999995" y="1.67" class="i">$</text><text x="32.064" y="1.67" class="g">neofetch</text></symbol><symbol id="5"><text x="10.02" y="1.67" class="i">████████</text><text x="30.059999999999995" y="1.67" class="j">GermanAndresLopez</text><text x="47.093999999999994" y="1.67" class="g">@</text><text x="48.096" y="1.67" class="j">github.com</text></symbol><symbol id="6"><text x="7.013999999999999" y="1.67" class="i">██████████████</text></symbol><symbol id="7"><text x="5.01" y="1.67" class="i">███</text><text x="10.02" y="1.67" class="i">████████</text><text x="20.04" y="1.67" class="i">███</text><text x="30.059999999999995" y="1.67" class="j">----------------------------</text></symbol><symbol id="8"><text x="4.008" y="1.67" class="i">████</text><text x="20.04" y="1.67" class="i">████</text><text x="30.059999999999995" y="1.67" class="j">OS:</text><text x="34.068" y="1.67" class="g">GitHub</text><text x="41.082" y="1.67" class="g">Profile</text></symbol><symbol id="9"><text x="4.008" y="1.67" class="i">████</text><text x="20.04" y="1.67" class="i">████</text><text x="30.059999999999995" y="1.67" class="j">Repos:</text><text x="37.074" y="1.67" class="g">42</text></symbol><symbol id="10"><text x="4.008" y="1.67" class="i">███</text><text x="21.041999999999998" y="1.67" class="i">███</text><text x="30.059999999999995" y="1.67" class="j">Gists:</text><text x="37.074" y="1.67" class="g">12</text></symbol><symbol id="11"><text x="4.008" y="1.67" class="i">████</text><text x="20.04" y="1.67" class="i">████</text><text x="30.059999999999995" y="1.67" class="j">Stars:</text><text x="37.074" y="1.67" class="g">432</text></symbol><symbol id="12"><text x="4.008" y="1.67" class="i">█████</text><text x="19.037999999999997" y="1.67" class="i">█████</text><text x="30.059999999999995" y="1.67" class="j">Followers:</text><text x="41.082" y="1.67" class="g">854</text></symbol><symbol id="13"><text x="5.01" y="1.67" class="i">██</text><text x="8.016" y="1.67" class="i">████</text><text x="16.032" y="1.67" class="i">███████</text><text x="30.059999999999995" y="1.67" class="j">Pull</text><text x="35.06999999999999" y="1.67" class="j">Requests:</text><text x="45.089999999999996" y="1.67" class="g">164</text></symbol><symbol id="14"><text x="6.012" y="1.67" class="i">██</text><text x="17.034" y="1.67" class="i">█████</text><text x="30.059999999999995" y="1.67" class="j">Issues:</text><text x="38.07599999999999" y="1.67" class="g">89</text></symbol><symbol id="15"><text x="9.017999999999999" y="1.67" class="i">██</text><text x="17.034" y="1.67" class="i">██</text></symbol><symbol id="16"><text x="0" y="1.67" class="f">GermanAndresLopez@github.com</text><text x="28.055999999999997" y="1.67" class="g">:</text><text x="29.058" y="1.67" class="h">~</text><text x="30.059999999999995" y="1.67" class="i">$</text><text x="32.064" y="1.67" class="g">languages</text></symbol><symbol id="17"><text x="1.002" y="1.67" class="g">TypeScript</text><text x="13.026" y="1.67" class="g">[█████████████████░░░]</text><text x="37.074" y="1.67" class="g">84%</text></symbol><symbol id="18"><text x="1.002" y="1.67" class="g">JavaScript</text><text x="13.026" y="1.67" class="g">[██░░░░░░░░░░░░░░░░░░]</text><text x="37.074" y="1.67" class="g">12%</text></symbol><symbol id="19"><text x="1.002" y="1.67" class="g">HTML</text><text x="13.026" y="1.67" class="g">[█░░░░░░░░░░░░░░░░░░░]</text><text x="38.07599999999999" y="1.67" class="g">4%</text></symbol><symbol id="20"><text x="0" y="1.67" class="f">GermanAndresLopez@github.com</text><text x="28.055999999999997" y="1.67" class="g">:</text><text x="29.058" y="1.67" class="h">~</text><text x="30.059999999999995" y="1.67" class="i">$</text><text x="32.064" y="1.67" class="g">exit</text></symbol><symbol id="21"><text x="0" y="1.67" class="g">exit</text></symbol><symbol id="a"><rect height="24" width="80" x="0" y="0" class="k"></rect></symbol><symbol id="b"><rect height="2.171" width="1.1022" class="l"></rect></symbol></defs><rect height="49.933" width="80" class="a"></rect><g class="n"><svg x="0" y="0" width="4240"><svg x="0"><use xlink:href="#a"></use><use xlink:href="#b" x="-0.0040000000000000036" y="0"></use></svg><svg x="80"><use xlink:href="#a"></use><use xlink:href="#b" x="31.996" y="0"></use><use xlink:href="#1" y="0"></use></svg><svg x="160"><use xlink:href="#a"></use><use xlink:href="#b" x="32.996" y="0"></use><text x="0" y="1.67" class="f">GermanAndresLopez@github.com</text><text x="28.055999999999997" y="1.67" class="g">:</text><text x="29.058" y="1.67" class="h">~</text><text x="30.059999999999995" y="1.67" class="i">$</text><text x="32.064" y="1.67" class="g">w</text></svg><svg x="240"><use xlink:href="#a"></use><use xlink:href="#b" x="33.996" y="0"></use><text x="0" y="1.67" class="f">GermanAndresLopez@github.com</text><text x="28.055999999999997" y="1.67" class="g">:</text><text x="29.058" y="1.67" class="h">~</text><text x="30.059999999999995" y="1.67" class="i">$</text><text x="32.064" y="1.67" class="g">wh</text></svg><svg x="320"><use xlink:href="#a"></use><use xlink:href="#b" x="34.996" y="0"></use><text x="0" y="1.67" class="f">GermanAndresLopez@github.com</text><text x="28.055999999999997" y="1.67" class="g">:</text><text x="29.058" y="1.67" class="h">~</text><text x="30.059999999999995" y="1.67" class="i">$</text><text x="32.064" y="1.67" class="g">who</text></svg><svg x="400"><use xlink:href="#a"></use><use xlink:href="#b" x="35.996" y="0"></use><text x="0" y="1.67" class="f">GermanAndresLopez@github.com</text><text x="28.055999999999997" y="1.67" class="g">:</text><text x="29.058" y="1.67" class="h">~</text><text x="30.059999999999995" y="1.67" class="i">$</text><text x="32.064" y="1.67" class="g">whoa</text></svg><svg x="480"><use xlink:href="#a"></use><use xlink:href="#b" x="36.996" y="0"></use><text x="0" y="1.67" class="f">GermanAndresLopez@github.com</text><text x="28.055999999999997" y="1.67" class="g">:</text><text x="29.058" y="1.67" class="h">~</text><text x="30.059999999999995" y="1.67" class="i">$</text><text x="32.064" y="1.67" class="g">whoam</text></svg><svg x="560"><use xlink:href="#a"></use><use xlink:href="#b" x="37.996" y="0"></use><use xlink:href="#2" y="0"></use></svg><svg x="640"><use xlink:href="#a"></use><use xlink:href="#b" x="-0.0040000000000000036" y="2.146"></use><use xlink:href="#2" y="0"></use></svg><svg x="720"><use xlink:href="#a"></use><use xlink:href="#b" x="-0.0040000000000000036" y="4.317"></use><use xlink:href="#2" y="0"></use><use xlink:href="#3" y="2.171"></use></svg><svg x="800"><use xlink:href="#a"></use><use xlink:href="#b" x="31.996" y="4.317"></use><use xlink:href="#2" y="0"></use><use xlink:href="#3" y="2.171"></use><use xlink:href="#1" y="4.342"></use></svg><svg x="880"><use xlink:href="#a"></use><use xlink:href="#b" x="32.996" y="4.317"></use><use xlink:href="#2" y="0"></use><use xlink:href="#3" y="2.171"></use><text x="0" y="6.012" class="f">GermanAndresLopez@github.com</text><text x="28.055999999999997" y="6.012" class="g">:</text><text x="29.058" y="6.012" class="h">~</text><text x="30.059999999999995" y="6.012" class="i">$</text><text x="32.064" y="6.012" class="g">n</text></svg><svg x="960"><use xlink:href="#a"></use><use xlink:href="#b" x="33.996" y="4.317"></use><use xlink:href="#2" y="0"></use><use xlink:href="#3" y="2.171"></use><text x="0" y="6.012" class="f">GermanAndresLopez@github.com</text><text x="28.055999999999997" y="6.012" class="g">:</text><text x="29.058" y="6.012" class="h">~</text><text x="30.059999999999995" y="6.012" class="i">$</text><text x="32.064" y="6.012" class="g">ne</text></svg><svg x="1040"><use xlink:href="#a"></use><use xlink:href="#b" x="34.996" y="4.317"></use><use xlink:href="#2" y="0"></use><use xlink:href="#3" y="2.171"></use><text x="0" y="6.012" class="f">GermanAndresLopez@github.com</text><text x="28.055999999999997" y="6.012" class="g">:</text><text x="29.058" y="6.012" class="h">~</text><text x="30.059999999999995" y="6.012" class="i">$</text><text x="32.064" y="6.012" class="g">neo</text></svg><svg x="1120"><use xlink:href="#a"></use><use xlink:href="#b" x="35.996" y="4.317"></use><use xlink:href="#2" y="0"></use><use xlink:href="#3" y="2.171"></use><text x="0" y="6.012" class="f">GermanAndresLopez@github.com</text><text x="28.055999999999997" y="6.012" class="g">:</text><text x="29.058" y="6.012" class="h">~</text><text x="30.059999999999995" y="6.012" class="i">$</text><text x="32.064" y="6.012" class="g">neof</text></svg><svg x="1200"><use xlink:href="#a"></use><use xlink:href="#b" x="36.996" y="4.317"></use><use xlink:href="#2" y="0"></use><use xlink:href="#3" y="2.171"></use><text x="0" y="6.012" class="f">GermanAndresLopez@github.com</text><text x="28.055999999999997" y="6.012" class="g">:</text><text x="29.058" y="6.012" class="h">~</text><text x="30.059999999999995" y="6.012" class="i">$</text><text x="32.064" y="6.012" class="g">neofe</text></svg><svg x="1280"><use xlink:href="#a"></use><use xlink:href="#b" x="37.996" y="4.317"></use><use xlink:href="#2" y="0"></use><use xlink:href="#3" y="2.171"></use><text x="0" y="6.012" class="f">GermanAndresLopez@github.com</text><text x="28.055999999999997" y="6.012" class="g">:</text><text x="29.058" y="6.012" class="h">~</text><text x="30.059999999999995" y="6.012" class="i">$</text><text x="32.064" y="6.012" class="g">neofet</text></svg><svg x="1360"><use xlink:href="#a"></use><use xlink:href="#b" x="38.996" y="4.317"></use><use xlink:href="#2" y="0"></use><use xlink:href="#3" y="2.171"></use><text x="0" y="6.012" class="f">GermanAndresLopez@github.com</text><text x="28.055999999999997" y="6.012" class="g">:</text><text x="29.058" y="6.012" class="h">~</text><text x="30.059999999999995" y="6.012" class="i">$</text><text x="32.064" y="6.012" class="g">neofetc</text></svg><svg x="1440"><use xlink:href="#a"></use><use xlink:href="#b" x="39.996" y="4.317"></use><use xlink:href="#2" y="0"></use><use xlink:href="#3" y="2.171"></use><use xlink:href="#4" y="4.342"></use></svg><svg x="1520"><use xlink:href="#a"></use><use xlink:href="#b" x="-0.0040000000000000036" y="6.4879999999999995"></use><use xlink:href="#2" y="0"></use><use xlink:href="#3" y="2.171"></use><use xlink:href="#4" y="4.342"></use></svg><svg x="1600"><use xlink:href="#a"></use><use xlink:href="#b" x="-0.0040000000000000036" y="8.658999999999999"></use><use xlink:href="#2" y="0"></use><use xlink:href="#3" y="2.171"></use><use xlink:href="#4" y="4.342"></use><use xlink:href="#5" y="6.513"></use></svg><svg x="1680"><use xlink:href="#a"></use><use xlink:href="#b" x="-0.0040000000000000036" y="10.83"></use><use xlink:href="#2" y="0"></use><use xlink:href="#3" y="2.171"></use><use xlink:href="#4" y="4.342"></use><use xlink:href="#5" y="6.513"></use><use xlink:href="#6" y="8.684"></use></svg><svg x="1760"><use xlink:href="#a"></use><use xlink:href="#b" x="-0.0040000000000000036" y="13.001"></use><use xlink:href="#2" y="0"></use><use xlink:href="#3" y="2.171"></use><use xlink:href="#4" y="4.342"></use><use xlink:href="#5" y="6.513"></use><use xlink:href="#6" y="8.684"></use><use xlink:href="#7" y="10.855"></use></svg><svg x="1840"><use xlink:href="#a"></use><use xlink:href="#b" x="-0.0040000000000000036" y="15.171999999999999"></use><use xlink:href="#2" y="0"></use><use xlink:href="#3" y="2.171"></use><use xlink:href="#4" y="4.342"></use><use xlink:href="#5" y="6.513"></use><use xlink:href="#6" y="8.684"></use><use xlink:href="#7" y="10.855"></use><use xlink:href="#8" y="13.026"></use></svg><svg x="1920"><use xlink:href="#a"></use><use xlink:href="#b" x="-0.0040000000000000036" y="17.343"></use><use xlink:href="#2" y="0"></use><use xlink:href="#3" y="2.171"></use><use xlink:href="#4" y="4.342"></use><use xlink:href="#5" y="6.513"></use><use xlink:href="#6" y="8.684"></use><use xlink:href="#7" y="10.855"></use><use xlink:href="#8" y="13.026"></use><use xlink:href="#9" y="15.197"></use></svg><svg x="2000"><use xlink:href="#a"></use><use xlink:href="#b" x="-0.0040000000000000036" y="19.514000000000003"></use><use xlink:href="#2" y="0"></use><use xlink:href="#3" y="2.171"></use><use xlink:href="#4" y="4.342"></use><use xlink:href="#5" y="6.513"></use><use xlink:href="#6" y="8.684"></use><use xlink:href="#7" y="10.855"></use><use xlink:href="#8" y="13.026"></use><use xlink:href="#9" y="15.197"></use><use xlink:href="#10" y="17.368"></use></svg><svg x="2080"><use xlink:href="#a"></use><use xlink:href="#b" x="-0.0040000000000000036" y="21.685000000000002"></use><use xlink:href="#2" y="0"></use><use xlink:href="#3" y="2.171"></use><use xlink:href="#4" y="4.342"></use><use xlink:href="#5" y="6.513"></use><use xlink:href="#6" y="8.684"></use><use xlink:href="#7" y="10.855"></use><use xlink:href="#8" y="13.026"></use><use xlink:href="#9" y="15.197"></use><use xlink:href="#10" y="17.368"></use><use xlink:href="#11" y="19.539"></use></svg><svg x="2160"><use xlink:href="#a"></use><use xlink:href="#b" x="-0.0040000000000000036" y="23.855999999999998"></use><use xlink:href="#2" y="0"></use><use xlink:href="#3" y="2.171"></use><use xlink:href="#4" y="4.342"></use><use xlink:href="#5" y="6.513"></use><use xlink:href="#6" y="8.684"></use><use xlink:href="#7" y="10.855"></use><use xlink:href="#8" y="13.026"></use><use xlink:href="#9" y="15.197"></use><use xlink:href="#10" y="17.368"></use><use xlink:href="#11" y="19.539"></use><use xlink:href="#12" y="21.71"></use></svg><svg x="2240"><use xlink:href="#a"></use><use xlink:href="#b" x="-0.0040000000000000036" y="26.027"></use><use xlink:href="#2" y="0"></use><use xlink:href="#3" y="2.171"></use><use xlink:href="#4" y="4.342"></use><use xlink:href="#5" y="6.513"></use><use xlink:href="#6" y="8.684"></use><use xlink:href="#7" y="10.855"></use><use xlink:href="#8" y="13.026"></use><use xlink:href="#9" y="15.197"></use><use xlink:href="#10" y="17.368"></use><use xlink:href="#11" y="19.539"></use><use xlink:href="#12" y="21.71"></use><use xlink:href="#13" y="23.880999999999997"></use></svg><svg x="2320"><use xlink:href="#a"></use><use xlink:href="#b" x="-0.0040000000000000036" y="28.198000000000004"></use><use xlink:href="#2" y="0"></use><use xlink:href="#3" y="2.171"></use><use xlink:href="#4" y="4.342"></use><use xlink:href="#5" y="6.513"></use><use xlink:href="#6" y="8.684"></use><use xlink:href="#7" y="10.855"></use><use xlink:href="#8" y="13.026"></use><use xlink:href="#9" y="15.197"></use><use xlink:href="#10" y="17.368"></use><use xlink:href="#11" y="19.539"></use><use xlink:href="#12" y="21.71"></use><use xlink:href="#13" y="23.880999999999997"></use><use xlink:href="#14" y="26.052"></use></svg><svg x="2400"><use xlink:href="#a"></use><use xlink:href="#b" x="-0.0040000000000000036" y="30.369"></use><use xlink:href="#2" y="0"></use><use xlink:href="#3" y="2.171"></use><use xlink:href="#4" y="4.342"></use><use xlink:href="#5" y="6.513"></use><use xlink:href="#6" y="8.684"></use><use xlink:href="#7" y="10.855"></use><use xlink:href="#8" y="13.026"></use><use xlink:href="#9" y="15.197"></use><use xlink:href="#10" y="17.368"></use><use xlink:href="#11" y="19.539"></use><use xlink:href="#12" y="21.71"></use><use xlink:href="#13" y="23.880999999999997"></use><use xlink:href="#14" y="26.052"></use><use xlink:href="#15" y="28.223000000000003"></use></svg><svg x="2480"><use xlink:href="#a"></use><use xlink:href="#b" x="31.996" y="30.369"></use><use xlink:href="#2" y="0"></use><use xlink:href="#3" y="2.171"></use><use xlink:href="#4" y="4.342"></use><use xlink:href="#5" y="6.513"></use><use xlink:href="#6" y="8.684"></use><use xlink:href="#7" y="10.855"></use><use xlink:href="#8" y="13.026"></use><use xlink:href="#9" y="15.197"></use><use xlink:href="#10" y="17.368"></use><use xlink:href="#11" y="19.539"></use><use xlink:href="#12" y="21.71"></use><use xlink:href="#13" y="23.880999999999997"></use><use xlink:href="#14" y="26.052"></use><use xlink:href="#15" y="28.223000000000003"></use><use xlink:href="#1" y="30.394"></use></svg><svg x="2560"><use xlink:href="#a"></use><use xlink:href="#b" x="32.996" y="30.369"></use><use xlink:href="#2" y="0"></use><use xlink:href="#3" y="2.171"></use><use xlink:href="#4" y="4.342"></use><use xlink:href="#5" y="6.513"></use><use xlink:href="#6" y="8.684"></use><use xlink:href="#7" y="10.855"></use><use xlink:href="#8" y="13.026"></use><use xlink:href="#9" y="15.197"></use><use xlink:href="#10" y="17.368"></use><use xlink:href="#11" y="19.539"></use><use xlink:href="#12" y="21.71"></use><use xlink:href="#13" y="23.880999999999997"></use><use xlink:href="#14" y="26.052"></use><use xlink:href="#15" y="28.223000000000003"></use><text x="0" y="32.064" class="f">GermanAndresLopez@github.com</text><text x="28.055999999999997" y="32.064" class="g">:</text><text x="29.058" y="32.064" class="h">~</text><text x="30.059999999999995" y="32.064" class="i">$</text><text x="32.064" y="32.064" class="g">l</text></svg><svg x="2640"><use xlink:href="#a"></use><use xlink:href="#b" x="33.996" y="30.369"></use><use xlink:href="#2" y="0"></use><use xlink:href="#3" y="2.171"></use><use xlink:href="#4" y="4.342"></use><use xlink:href="#5" y="6.513"></use><use xlink:href="#6" y="8.684"></use><use xlink:href="#7" y="10.855"></use><use xlink:href="#8" y="13.026"></use><use xlink:href="#9" y="15.197"></use><use xlink:href="#10" y="17.368"></use><use xlink:href="#11" y="19.539"></use><use xlink:href="#12" y="21.71"></use><use xlink:href="#13" y="23.880999999999997"></use><use xlink:href="#14" y="26.052"></use><use xlink:href="#15" y="28.223000000000003"></use><text x="0" y="32.064" class="f">GermanAndresLopez@github.com</text><text x="28.055999999999997" y="32.064" class="g">:</text><text x="29.058" y="32.064" class="h">~</text><text x="30.059999999999995" y="32.064" class="i">$</text><text x="32.064" y="32.064" class="g">la</text></svg><svg x="2720"><use xlink:href="#a"></use><use xlink:href="#b" x="34.996" y="30.369"></use><use xlink:href="#2" y="0"></use><use xlink:href="#3" y="2.171"></use><use xlink:href="#4" y="4.342"></use><use xlink:href="#5" y="6.513"></use><use xlink:href="#6" y="8.684"></use><use xlink:href="#7" y="10.855"></use><use xlink:href="#8" y="13.026"></use><use xlink:href="#9" y="15.197"></use><use xlink:href="#10" y="17.368"></use><use xlink:href="#11" y="19.539"></use><use xlink:href="#12" y="21.71"></use><use xlink:href="#13" y="23.880999999999997"></use><use xlink:href="#14" y="26.052"></use><use xlink:href="#15" y="28.223000000000003"></use><text x="0" y="32.064" class="f">GermanAndresLopez@github.com</text><text x="28.055999999999997" y="32.064" class="g">:</text><text x="29.058" y="32.064" class="h">~</text><text x="30.059999999999995" y="32.064" class="i">$</text><text x="32.064" y="32.064" class="g">lan</text></svg><svg x="2800"><use xlink:href="#a"></use><use xlink:href="#b" x="35.996" y="30.369"></use><use xlink:href="#2" y="0"></use><use xlink:href="#3" y="2.171"></use><use xlink:href="#4" y="4.342"></use><use xlink:href="#5" y="6.513"></use><use xlink:href="#6" y="8.684"></use><use xlink:href="#7" y="10.855"></use><use xlink:href="#8" y="13.026"></use><use xlink:href="#9" y="15.197"></use><use xlink:href="#10" y="17.368"></use><use xlink:href="#11" y="19.539"></use><use xlink:href="#12" y="21.71"></use><use xlink:href="#13" y="23.880999999999997"></use><use xlink:href="#14" y="26.052"></use><use xlink:href="#15" y="28.223000000000003"></use><text x="0" y="32.064" class="f">GermanAndresLopez@github.com</text><text x="28.055999999999997" y="32.064" class="g">:</text><text x="29.058" y="32.064" class="h">~</text><text x="30.059999999999995" y="32.064" class="i">$</text><text x="32.064" y="32.064" class="g">lang</text></svg><svg x="2880"><use xlink:href="#a"></use><use xlink:href="#b" x="36.996" y="30.369"></use><use xlink:href="#2" y="0"></use><use xlink:href="#3" y="2.171"></use><use xlink:href="#4" y="4.342"></use><use xlink:href="#5" y="6.513"></use><use xlink:href="#6" y="8.684"></use><use xlink:href="#7" y="10.855"></use><use xlink:href="#8" y="13.026"></use><use xlink:href="#9" y="15.197"></use><use xlink:href="#10" y="17.368"></use><use xlink:href="#11" y="19.539"></use><use xlink:href="#12" y="21.71"></use><use xlink:href="#13" y="23.880999999999997"></use><use xlink:href="#14" y="26.052"></use><use xlink:href="#15" y="28.223000000000003"></use><text x="0" y="32.064" class="f">GermanAndresLopez@github.com</text><text x="28.055999999999997" y="32.064" class="g">:</text><text x="29.058" y="32.064" class="h">~</text><text x="30.059999999999995" y="32.064" class="i">$</text><text x="32.064" y="32.064" class="g">langu</text></svg><svg x="2960"><use xlink:href="#a"></use><use xlink:href="#b" x="37.996" y="30.369"></use><use xlink:href="#2" y="0"></use><use xlink:href="#3" y="2.171"></use><use xlink:href="#4" y="4.342"></use><use xlink:href="#5" y="6.513"></use><use xlink:href="#6" y="8.684"></use><use xlink:href="#7" y="10.855"></use><use xlink:href="#8" y="13.026"></use><use xlink:href="#9" y="15.197"></use><use xlink:href="#10" y="17.368"></use><use xlink:href="#11" y="19.539"></use><use xlink:href="#12" y="21.71"></use><use xlink:href="#13" y="23.880999999999997"></use><use xlink:href="#14" y="26.052"></use><use xlink:href="#15" y="28.223000000000003"></use><text x="0" y="32.064" class="f">GermanAndresLopez@github.com</text><text x="28.055999999999997" y="32.064" class="g">:</text><text x="29.058" y="32.064" class="h">~</text><text x="30.059999999999995" y="32.064" class="i">$</text><text x="32.064" y="32.064" class="g">langua</text></svg><svg x="3040"><use xlink:href="#a"></use><use xlink:href="#b" x="38.996" y="30.369"></use><use xlink:href="#2" y="0"></use><use xlink:href="#3" y="2.171"></use><use xlink:href="#4" y="4.342"></use><use xlink:href="#5" y="6.513"></use><use xlink:href="#6" y="8.684"></use><use xlink:href="#7" y="10.855"></use><use xlink:href="#8" y="13.026"></use><use xlink:href="#9" y="15.197"></use><use xlink:href="#10" y="17.368"></use><use xlink:href="#11" y="19.539"></use><use xlink:href="#12" y="21.71"></use><use xlink:href="#13" y="23.880999999999997"></use><use xlink:href="#14" y="26.052"></use><use xlink:href="#15" y="28.223000000000003"></use><text x="0" y="32.064" class="f">GermanAndresLopez@github.com</text><text x="28.055999999999997" y="32.064" class="g">:</text><text x="29.058" y="32.064" class="h">~</text><text x="30.059999999999995" y="32.064" class="i">$</text><text x="32.064" y="32.064" class="g">languag</text></svg><svg x="3120"><use xlink:href="#a"></use><use xlink:href="#b" x="39.996" y="30.369"></use><use xlink:href="#2" y="0"></use><use xlink:href="#3" y="2.171"></use><use xlink:href="#4" y="4.342"></use><use xlink:href="#5" y="6.513"></use><use xlink:href="#6" y="8.684"></use><use xlink:href="#7" y="10.855"></use><use xlink:href="#8" y="13.026"></use><use xlink:href="#9" y="15.197"></use><use xlink:href="#10" y="17.368"></use><use xlink:href="#11" y="19.539"></use><use xlink:href="#12" y="21.71"></use><use xlink:href="#13" y="23.880999999999997"></use><use xlink:href="#14" y="26.052"></use><use xlink:href="#15" y="28.223000000000003"></use><text x="0" y="32.064" class="f">GermanAndresLopez@github.com</text><text x="28.055999999999997" y="32.064" class="g">:</text><text x="29.058" y="32.064" class="h">~</text><text x="30.059999999999995" y="32.064" class="i">$</text><text x="32.064" y="32.064" class="g">language</text></svg><svg x="3200"><use xlink:href="#a"></use><use xlink:href="#b" x="40.996" y="30.369"></use><use xlink:href="#2" y="0"></use><use xlink:href="#3" y="2.171"></use><use xlink:href="#4" y="4.342"></use><use xlink:href="#5" y="6.513"></use><use xlink:href="#6" y="8.684"></use><use xlink:href="#7" y="10.855"></use><use xlink:href="#8" y="13.026"></use><use xlink:href="#9" y="15.197"></use><use xlink:href="#10" y="17.368"></use><use xlink:href="#11" y="19.539"></use><use xlink:href="#12" y="21.71"></use><use xlink:href="#13" y="23.880999999999997"></use><use xlink:href="#14" y="26.052"></use><use xlink:href="#15" y="28.223000000000003"></use><use xlink:href="#16" y="30.394"></use></svg><svg x="3280"><use xlink:href="#a"></use><use xlink:href="#b" x="-0.0040000000000000036" y="32.54"></use><use xlink:href="#2" y="0"></use><use xlink:href="#3" y="2.171"></use><use xlink:href="#4" y="4.342"></use><use xlink:href="#5" y="6.513"></use><use xlink:href="#6" y="8.684"></use><use xlink:href="#7" y="10.855"></use><use xlink:href="#8" y="13.026"></use><use xlink:href="#9" y="15.197"></use><use xlink:href="#10" y="17.368"></use><use xlink:href="#11" y="19.539"></use><use xlink:href="#12" y="21.71"></use><use xlink:href="#13" y="23.880999999999997"></use><use xlink:href="#14" y="26.052"></use><use xlink:href="#15" y="28.223000000000003"></use><use xlink:href="#16" y="30.394"></use></svg><svg x="3360"><use xlink:href="#a"></use><use xlink:href="#b" x="-0.0040000000000000036" y="34.711"></use><use xlink:href="#2" y="0"></use><use xlink:href="#3" y="2.171"></use><use xlink:href="#4" y="4.342"></use><use xlink:href="#5" y="6.513"></use><use xlink:href="#6" y="8.684"></use><use xlink:href="#7" y="10.855"></use><use xlink:href="#8" y="13.026"></use><use xlink:href="#9" y="15.197"></use><use xlink:href="#10" y="17.368"></use><use xlink:href="#11" y="19.539"></use><use xlink:href="#12" y="21.71"></use><use xlink:href="#13" y="23.880999999999997"></use><use xlink:href="#14" y="26.052"></use><use xlink:href="#15" y="28.223000000000003"></use><use xlink:href="#16" y="30.394"></use><use xlink:href="#17" y="32.565"></use></svg><svg x="3440"><use xlink:href="#a"></use><use xlink:href="#b" x="-0.0040000000000000036" y="36.882000000000005"></use><use xlink:href="#2" y="0"></use><use xlink:href="#3" y="2.171"></use><use xlink:href="#4" y="4.342"></use><use xlink:href="#5" y="6.513"></use><use xlink:href="#6" y="8.684"></use><use xlink:href="#7" y="10.855"></use><use xlink:href="#8" y="13.026"></use><use xlink:href="#9" y="15.197"></use><use xlink:href="#10" y="17.368"></use><use xlink:href="#11" y="19.539"></use><use xlink:href="#12" y="21.71"></use><use xlink:href="#13" y="23.880999999999997"></use><use xlink:href="#14" y="26.052"></use><use xlink:href="#15" y="28.223000000000003"></use><use xlink:href="#16" y="30.394"></use><use xlink:href="#17" y="32.565"></use><use xlink:href="#18" y="34.736"></use></svg><svg x="3520"><use xlink:href="#a"></use><use xlink:href="#b" x="-0.0040000000000000036" y="39.053000000000004"></use><use xlink:href="#2" y="0"></use><use xlink:href="#3" y="2.171"></use><use xlink:href="#4" y="4.342"></use><use xlink:href="#5" y="6.513"></use><use xlink:href="#6" y="8.684"></use><use xlink:href="#7" y="10.855"></use><use xlink:href="#8" y="13.026"></use><use xlink:href="#9" y="15.197"></use><use xlink:href="#10" y="17.368"></use><use xlink:href="#11" y="19.539"></use><use xlink:href="#12" y="21.71"></use><use xlink:href="#13" y="23.880999999999997"></use><use xlink:href="#14" y="26.052"></use><use xlink:href="#15" y="28.223000000000003"></use><use xlink:href="#16" y="30.394"></use><use xlink:href="#17" y="32.565"></use><use xlink:href="#18" y="34.736"></use><use xlink:href="#19" y="36.907000000000004"></use></svg><svg x="3600"><use xlink:href="#a"></use><use xlink:href="#b" x="31.996" y="39.053000000000004"></use><use xlink:href="#2" y="0"></use><use xlink:href="#3" y="2.171"></use><use xlink:href="#4" y="4.342"></use><use xlink:href="#5" y="6.513"></use><use xlink:href="#6" y="8.684"></use><use xlink:href="#7" y="10.855"></use><use xlink:href="#8" y="13.026"></use><use xlink:href="#9" y="15.197"></use><use xlink:href="#10" y="17.368"></use><use xlink:href="#11" y="19.539"></use><use xlink:href="#12" y="21.71"></use><use xlink:href="#13" y="23.880999999999997"></use><use xlink:href="#14" y="26.052"></use><use xlink:href="#15" y="28.223000000000003"></use><use xlink:href="#16" y="30.394"></use><use xlink:href="#17" y="32.565"></use><use xlink:href="#18" y="34.736"></use><use xlink:href="#19" y="36.907000000000004"></use><use xlink:href="#1" y="39.078"></use></svg><svg x="3680"><use xlink:href="#a"></use><use xlink:href="#b" x="32.996" y="39.053000000000004"></use><use xlink:href="#2" y="0"></use><use xlink:href="#3" y="2.171"></use><use xlink:href="#4" y="4.342"></use><use xlink:href="#5" y="6.513"></use><use xlink:href="#6" y="8.684"></use><use xlink:href="#7" y="10.855"></use><use xlink:href="#8" y="13.026"></use><use xlink:href="#9" y="15.197"></use><use xlink:href="#10" y="17.368"></use><use xlink:href="#11" y="19.539"></use><use xlink:href="#12" y="21.71"></use><use xlink:href="#13" y="23.880999999999997"></use><use xlink:href="#14" y="26.052"></use><use xlink:href="#15" y="28.223000000000003"></use><use xlink:href="#16" y="30.394"></use><use xlink:href="#17" y="32.565"></use><use xlink:href="#18" y="34.736"></use><use xlink:href="#19" y="36.907000000000004"></use><text x="0" y="40.748000000000005" class="f">GermanAndresLopez@github.com</text><text x="28.055999999999997" y="40.748000000000005" class="g">:</text><text x="29.058" y="40.748000000000005" class="h">~</text><text x="30.059999999999995" y="40.748000000000005" class="i">$</text><text x="32.064" y="40.748000000000005" class="g">e</text></svg><svg x="3760"><use xlink:href="#a"></use><use xlink:href="#b" x="33.996" y="39.053000000000004"></use><use xlink:href="#2" y="0"></use><use xlink:href="#3" y="2.171"></use><use xlink:href="#4" y="4.342"></use><use xlink:href="#5" y="6.513"></use><use xlink:href="#6" y="8.684"></use><use xlink:href="#7" y="10.855"></use><use xlink:href="#8" y="13.026"></use><use xlink:href="#9" y="15.197"></use><use xlink:href="#10" y="17.368"></use><use xlink:href="#11" y="19.539"></use><use xlink:href="#12" y="21.71"></use><use xlink:href="#13" y="23.880999999999997"></use><use xlink:href="#14" y="26.052"></use><use xlink:href="#15" y="28.223000000000003"></use><use xlink:href="#16" y="30.394"></use><use xlink:href="#17" y="32.565"></use><use xlink:href="#18" y="34.736"></use><use xlink:href="#19" y="36.907000000000004"></use><text x="0" y="40.748000000000005" class="f">GermanAndresLopez@github.com</text><text x="28.055999999999997" y="40.748000000000005" class="g">:</text><text x="29.058" y="40.748000000000005" class="h">~</text><text x="30.059999999999995" y="40.748000000000005" class="i">$</text><text x="32.064" y="40.748000000000005" class="g">ex</text></svg><svg x="3840"><use xlink:href="#a"></use><use xlink:href="#b" x="34.996" y="39.053000000000004"></use><use xlink:href="#2" y="0"></use><use xlink:href="#3" y="2.171"></use><use xlink:href="#4" y="4.342"></use><use xlink:href="#5" y="6.513"></use><use xlink:href="#6" y="8.684"></use><use xlink:href="#7" y="10.855"></use><use xlink:href="#8" y="13.026"></use><use xlink:href="#9" y="15.197"></use><use xlink:href="#10" y="17.368"></use><use xlink:href="#11" y="19.539"></use><use xlink:href="#12" y="21.71"></use><use xlink:href="#13" y="23.880999999999997"></use><use xlink:href="#14" y="26.052"></use><use xlink:href="#15" y="28.223000000000003"></use><use xlink:href="#16" y="30.394"></use><use xlink:href="#17" y="32.565"></use><use xlink:href="#18" y="34.736"></use><use xlink:href="#19" y="36.907000000000004"></use><text x="0" y="40.748000000000005" class="f">GermanAndresLopez@github.com</text><text x="28.055999999999997" y="40.748000000000005" class="g">:</text><text x="29.058" y="40.748000000000005" class="h">~</text><text x="30.059999999999995" y="40.748000000000005" class="i">$</text><text x="32.064" y="40.748000000000005" class="g">exi</text></svg><svg x="3920"><use xlink:href="#a"></use><use xlink:href="#b" x="35.996" y="39.053000000000004"></use><use xlink:href="#2" y="0"></use><use xlink:href="#3" y="2.171"></use><use xlink:href="#4" y="4.342"></use><use xlink:href="#5" y="6.513"></use><use xlink:href="#6" y="8.684"></use><use xlink:href="#7" y="10.855"></use><use xlink:href="#8" y="13.026"></use><use xlink:href="#9" y="15.197"></use><use xlink:href="#10" y="17.368"></use><use xlink:href="#11" y="19.539"></use><use xlink:href="#12" y="21.71"></use><use xlink:href="#13" y="23.880999999999997"></use><use xlink:href="#14" y="26.052"></use><use xlink:href="#15" y="28.223000000000003"></use><use xlink:href="#16" y="30.394"></use><use xlink:href="#17" y="32.565"></use><use xlink:href="#18" y="34.736"></use><use xlink:href="#19" y="36.907000000000004"></use><use xlink:href="#20" y="39.078"></use></svg><svg x="4000"><use xlink:href="#a"></use><use xlink:href="#b" x="-0.0040000000000000036" y="41.224"></use><use xlink:href="#2" y="0"></use><use xlink:href="#3" y="2.171"></use><use xlink:href="#4" y="4.342"></use><use xlink:href="#5" y="6.513"></use><use xlink:href="#6" y="8.684"></use><use xlink:href="#7" y="10.855"></use><use xlink:href="#8" y="13.026"></use><use xlink:href="#9" y="15.197"></use><use xlink:href="#10" y="17.368"></use><use xlink:href="#11" y="19.539"></use><use xlink:href="#12" y="21.71"></use><use xlink:href="#13" y="23.880999999999997"></use><use xlink:href="#14" y="26.052"></use><use xlink:href="#15" y="28.223000000000003"></use><use xlink:href="#16" y="30.394"></use><use xlink:href="#17" y="32.565"></use><use xlink:href="#18" y="34.736"></use><use xlink:href="#19" y="36.907000000000004"></use><use xlink:href="#20" y="39.078"></use></svg><svg x="4080"><use xlink:href="#a"></use><use xlink:href="#b" x="-0.0040000000000000036" y="43.395"></use><use xlink:href="#2" y="0"></use><use xlink:href="#3" y="2.171"></use><use xlink:href="#4" y="4.342"></use><use xlink:href="#5" y="6.513"></use><use xlink:href="#6" y="8.684"></use><use xlink:href="#7" y="10.855"></use><use xlink:href="#8" y="13.026"></use><use xlink:href="#9" y="15.197"></use><use xlink:href="#10" y="17.368"></use><use xlink:href="#11" y="19.539"></use><use xlink:href="#12" y="21.71"></use><use xlink:href="#13" y="23.880999999999997"></use><use xlink:href="#14" y="26.052"></use><use xlink:href="#15" y="28.223000000000003"></use><use xlink:href="#16" y="30.394"></use><use xlink:href="#17" y="32.565"></use><use xlink:href="#18" y="34.736"></use><use xlink:href="#19" y="36.907000000000004"></use><use xlink:href="#20" y="39.078"></use><use xlink:href="#21" y="41.248999999999995"></use></svg><svg x="4160"><use xlink:href="#a"></use><use xlink:href="#b" x="-0.0040000000000000036" y="45.566"></use><use xlink:href="#2" y="0"></use><use xlink:href="#3" y="2.171"></use><use xlink:href="#4" y="4.342"></use><use xlink:href="#5" y="6.513"></use><use xlink:href="#6" y="8.684"></use><use xlink:href="#7" y="10.855"></use><use xlink:href="#8" y="13.026"></use><use xlink:href="#9" y="15.197"></use><use xlink:href="#10" y="17.368"></use><use xlink:href="#11" y="19.539"></use><use xlink:href="#12" y="21.71"></use><use xlink:href="#13" y="23.880999999999997"></use><use xlink:href="#14" y="26.052"></use><use xlink:href="#15" y="28.223000000000003"></use><use xlink:href="#16" y="30.394"></use><use xlink:href="#17" y="32.565"></use><use xlink:href="#18" y="34.736"></use><use xlink:href="#19" y="36.907000000000004"></use><use xlink:href="#20" y="39.078"></use><use xlink:href="#21" y="41.248999999999995"></use></svg></svg></g></g></svg></g><rect class="fxGlitchBar" width="840" height="559.3299999999999" fill="#ff0033" opacity="0" pointer-events="none" />
<rect class="fxGlitchBar fxB2" width="840" height="559.3299999999999" fill="#00e5ff" opacity="0" pointer-events="none" /></svg>