<svg xmlns="http://www.w3.org/2000/svg" xmlns:xlink="http://www.w3.org/1999/xlink" width="840" height="515.9100000000001"><rect width="840" height="515.9100000000001" rx="5" ry="5" class="K"></rect><svg y="0%" x="0%"><circle cx="20" cy="20" r="6" class="b"></circle><circle cx="40" cy="20" r="6" class="c"></circle><circle cx="60" cy="20" r="6" class="d"></circle></svg><svg height="455.91" viewBox="0 0 80 45.591" width="800" x="15" xmlns="http://www.w3.org/2000/svg" xmlns:xlink="http://www.w3.org/1999/xlink" y="50"><style>.a{fill:rgb(26,27,38)}.b{fill:#ff5f58}.c{fill:#ffbd2e}.d{fill:#18c132}.e{font-family:Monaco,Consolas,Menlo,'Bitstream Vera Sans Mono','Powerline Symbols',monospace}.f{fill:rgb(187,154,247);white-space:pre}.g{fill:rgb(169,177,214);white-space:pre}.h{fill:rgb(125,207,255);white-space:pre}.i{fill:rgb(158,206,106);white-space:pre}.j{fill:rgb(224,175,104);white-space:pre}.k{fill:transparent}.l{fill:rgb(192,202,245)}.n{animation-duration:10.27999999999999s;animation-iteration-count:infinite;animation-name:m;animation-timing-function:steps(1,end)}.o{fill:rgb(40,42,54)}.p{fill:rgb(255,121,198);white-space:pre}.q{fill:rgb(248,248,242);white-space:pre}.r{fill:rgb(139,233,253);white-space:pre}.s{fill:rgb(80,250,123);white-space:pre}.t{fill:rgb(241,250,140);white-space:pre}.u{fill:rgb(248,248,242)}.w{animation-duration:12.479999999999995s;animation-iteration-count:infinite;animation-name:v;animation-timing-function:steps(1,end)}.x{fill:rgb(48,10,36)}.y{fill:rgb(117,80,123);white-space:pre}.z{fill:rgb(238,238,236);white-space:pre}.A{fill:rgb(6,152,154);white-space:pre}.B{fill:rgb(78,154,6);white-space:pre}.C{fill:rgb(196,160,0);white-space:pre}.D{fill:rgb(187,187,187)}.E{fill:rgb(0,0,0)}.F{fill:rgb(0,204,0);white-space:pre}.G{fill:rgb(0,255,0);white-space:pre}.H{fill:rgb(0,255,102);white-space:pre}.I{fill:rgb(0,153,0);white-space:pre}.J{fill:rgb(0,255,0)}.K{fill:rgb(40,44,52)}.L{fill:rgb(198,120,221);white-space:pre}.M{fill:rgb(171,178,191);white-space:pre}.N{fill:rgb(86,182,194);white-space:pre}.O{fill:rgb(152,195,121);white-space:pre}.P{fill:rgb(209,154,102);white-space:pre}.Q{fill:rgb(82,139,255)}@keyframes m{0%{transform:translateX(-0px)}0%{transform:translateX(-80px)}1.9%{transform:translateX(-160px)}2.9%{transform:translateX(-240px)}3.9%{transform:translateX(-320px)}4.9%{transform:translateX(-400px)}5.8%{transform:translateX(-480px)}6.8%{transform:translateX(-560px)}9.7%{transform:translateX(-640px)}14.6%{transform:translateX(-720px)}24.5%{transform:translateX(-800px)}26.5%{transform:translateX(-880px)}27.4%{transform:translateX(-960px)}28.4%{transform:translateX(-1040px)}29.4%{transform:translateX(-1120px)}30.4%{transform:translateX(-1200px)}31.3%{transform:translateX(-1280px)}32.3%{transform:translateX(-1360px)}33.3%{transform:translateX(-1440px)}36.2%{transform:translateX(-1520px)}41.1%{transform:translateX(-1600px)}41.2%{transform:translateX(-1680px)}41.4%{transform:translateX(-1760px)}41.6%{transform:translateX(-1840px)}41.8%{transform:translateX(-1920px)}42%{transform:translateX(-2000px)}42.2%{transform:translateX(-2080px)}42.4%{transform:translateX(-2160px)}42.6%{transform:translateX(-2240px)}42.8%{transform:translateX(-2320px)}43%{transform:translateX(-2400px)}52.9%{transform:translateX(-2480px)}54.9%{transform:translateX(-2560px)}55.8%{transform:translateX(-2640px)}56.8%{transform:translateX(-2720px)}57.8%{transform:translateX(-2800px)}58.8%{transform:translateX(-2880px)}59.7%{transform:translateX(-2960px)}62.6%{transform:translateX(-3040px)}67.5%{transform:translateX(-3120px)}77.4%{transform:translateX(-3200px)}79.4%{transform:translateX(-3280px)}80.4%{transform:translateX(-3360px)}81.3%{transform:translateX(-3440px)}82.3%{transform:translateX(-3520px)}85.2%{transform:translateX(-3600px)}90.1%{transform:translateX(-3680px)}100%{transform:translateX(-3760px)}}@keyframes v{0%{transform:translateX(-0px)}0%{transform:translateX(-80px)}1.6%{transform:translateX(-160px)}2.2%{transform:translateX(-240px)}2.9%{transform:translateX(-320px)}3.5%{transform:translateX(-400px)}4.2%{transform:translateX(-480px)}4.8%{transform:translateX(-560px)}7.1%{transform:translateX(-640px)}11.1%{transform:translateX(-720px)}19.2%{transform:translateX(-800px)}20.8%{transform:translateX(-880px)}21.5%{transform:translateX(-960px)}22.1%{transform:translateX(-1040px)}22.8%{transform:translateX(-1120px)}23.4%{transform:translateX(-1200px)}24%{transform:translateX(-1280px)}24.7%{transform:translateX(-1360px)}25.3%{transform:translateX(-1440px)}27.6%{transform:translateX(-1520px)}31.6%{transform:translateX(-1600px)}31.7%{transform:translateX(-1680px)}31.9%{transform:translateX(-1760px)}32.1%{transform:translateX(-1840px)}32.2%{transform:translateX(-1920px)}32.4%{transform:translateX(-2000px)}32.5%{transform:translateX(-2080px)}32.7%{transform:translateX(-2160px)}32.9%{transform:translateX(-2240px)}33%{transform:translateX(-2320px)}33.2%{transform:translateX(-2400px)}41.3%{transform:translateX(-2480px)}42.9%{transform:translateX(-2560px)}43.6%{transform:translateX(-2640px)}44.2%{transform:translateX(-2720px)}44.9%{transform:translateX(-2800px)}45.5%{transform:translateX(-2880px)}46.2%{transform:translateX(-2960px)}46.8%{transform:translateX(-3040px)}47.4%{transform:translateX(-3120px)}48.1%{transform:translateX(-3200px)}50.3%{transform:translateX(-3280px)}54.3%{transform:translateX(-3360px)}54.5%{transform:translateX(-3440px)}54.6%{transform:translateX(-3520px)}62.8%{transform:translateX(-3600px)}64.4%{transform:translateX(-3680px)}65.1%{transform:translateX(-3760px)}65.7%{transform:translateX(-3840px)}66.3%{transform:translateX(-3920px)}67%{transform:translateX(-4000px)}67.6%{transform:translateX(-4080px)}69.9%{transform:translateX(-4160px)}73.9%{transform:translateX(-4240px)}82.1%{transform:translateX(-4320px)}83.7%{transform:translateX(-4400px)}84.3%{transform:translateX(-4480px)}84.9%{transform:translateX(-4560px)}85.6%{transform:translateX(-4640px)}87.8%{transform:translateX(-4720px)}91.8%{transform:translateX(-4800px)}100%{transform:translateX(-4880px)}}</style><g font-family="Monaco, Consolas, Menlo, &#x27;Bitstream Vera Sans Mono&#x27;, &#x27;Powerline Symbols&#x27;, monospace" font-size="1.67" class="e"><defs><symbol id="1"><text x="0" y="1.67" class="L">GermanAndresLopez@github.com</text><text x="28.055999999999997" y="1.67" class="M">:</text><text x="29.058" y="1.67" class="N">~</text><text x="30.059999999999995" y="1.67" class="O">$</text></symbol><symbol id="2"><text x="0" y="1.67" class="L">GermanAndresLopez@github.com</text><text x="28.055999999999997" y="1.67" class="M">:</text><text x="29.058" y="1.67" class="N">~</text><text x="30.059999999999995" y="1.67" class="O">$</text><text x="32.064" y="1.67" class="M">whoami</text></symbol><symbol id="3"><text x="0" y="1.67" class="M">John</text><text x="5.01" y="1.67" class="M">Doe</text></symbol><symbol id="4"><text x="0" y="1.67" class="L">GermanAndresLopez@github.com</text><text x="28.055999999999997" y="1.67" class="M">:</text><text x="29.058" y="1.67" class="N">~</text><text x="30.059999999999995" y="1.67" class="O">$</text><text x="32.064" y="1.67" class="M">neofetch</text></symbol><symbol id="5"><text x="10.02" y="1.67" class="O">████████</text><text x="30.059999999999995" y="1.67" class="P">GermanAndresLopez</text><text x="47.093999999999994" y="1.67" class="M">@</text><text x="48.096" y="1.67" class="P">github.com</text></symbol><symbol id="6"><text x="7.013999999999999" y="1.67" class="O">██████████████</text></symbol><symbol id="7"><text x="5.01" y="1.67" class="O">███</text><text x="10.02" y="1.67" class="O">████████</text><text x="20.04" y="1.67" class="O">███</text><text x="30.059999999999995" y="1.67" class="P">----------------------------</text></symbol><symbol id="8"><text x="4.008" y="1.67" class="O">████</text><text x="20.04" y="1.67" class="O">████</text><text x="30.059999999999995" y="1.67" class="P">OS:</text><text x="34.068" y="1.67" class="M">GitHub</text><text x="41.082" y="1.67" class="M">Profile</text></symbol><symbol id="9"><text x="4.008" y="1.67" class="O">████</text><text x="20.04" y="1.67" class="O">████</text><text x="30.059999999999995" y="1.67" class="P">Repos:</text><text x="37.074" y="1.67" class="M">42</text></symbol><symbol id="10"><text x="4.008" y="1.67" class="O">███</text><text x="21.041999999999998" y="1.67" class="O">███</text><text x="30.059999999999995" y="1.67" class="P">Gists:</text><text x="37.074" y="1.67" class="M">12</text></symbol><symbol id="11"><text x="4.008" y="1.67" class="O">████</text><text x="20.04" y="1.67" class="O">████</text><text x="30.059999999999995" y="1.67" class="P">Stars:</text><text x="37.074" y="1.67" class="M">432</text></symbol><symbol id="12"><text x="4.008" y="1.67" class="O">█████</text><text x="19.037999999999997" y="1.67" class="O">█████</text><text x="30.059999999999995" y="1.67" class="P">Followers:</text><text x="41.082" y="1.67" class="M">854</text></symbol><symbol id="13"><text x="5.01" y="1.67" class="O">██</text><text x="8.016" y="1.67" class="O">████</text><text x="16.032" y="1.67" class="O">███████</text><text x="30.059999999999995" y="1.67" class="P">Pull</text><text x="35.06999999999999" y="1.67" class="P">Requests:</text><text x="45.089999999999996" y="1.67" class="M">164</text></symbol><symbol id="14"><text x="6.012" y="1.67" class="O">██</text><text x="17.034" y="1.67" class="O">█████</text><text x="30.059999999999995" y="1.67" class="P">Issues:</text><text x="38.07599999999999" y="1.67" class="M">89</text></symbol><symbol id="15"><text x="9.017999999999999" y="1.67" class="O">██</text><text x="17.034" y="1.67" class="O">██</text></symbol><symbol id="16"><text x="0" y="1.67" class="L">GermanAndresLopez@github.com</text><text x="28.055999999999997" y="1.67" class="M">:</text><text x="29.058" y="1.67" class="N">~</text><text x="30.059999999999995" y="1.67" class="O">$</text><text x="32.064" y="1.67" class="M">uptime</text></symbol><symbol id="17"><text x="0" y="1.67" class="M">3</text><text x="2.004" y="1.67" class="M">years,</text><text x="9.017999999999999" y="1.67" class="M">142</text><text x="13.026" y="1.67" class="M">days</text></symbol><symbol id="18"><text x="0" y="1.67" class="L">GermanAndresLopez@github.com</text><text x="28.055999999999997" y="1.67" class="M">:</text><text x="29.058" y="1.67" class="N">~</text><text x="30.059999999999995" y="1.67" class="O">$</text><text x="32.064" y="1.67" class="M">exit</text></symbol><symbol id="19"><text x="0" y="1.67" class="M">exit</text></symbol><symbol id="a"><rect height="22" width="80" x="0" y="0" class="k"></rect></symbol><symbol id="b"><rect height="2.171" width="1.1022" class="Q"></rect></symbol></defs><rect height="45.591" width="80" class="K"></rect><g class="n"><svg x="0" y="0" width="3840"><svg x="0"><use xlink:href="#a"></use><use xlink:href="#b" x="-0.0040000000000000036" y="0"></use></svg><svg x="80"><use xlink:href="#a"></use><use xlink:href="#b" x="31.996" y="0"></use><use xlink:href="#1" y="0"></use></svg><svg x="160"><use xlink:href="#a"></use><use xlink:href="#b" x="32.996" y="0"></use><text x="0" y="1.67" class="L">GermanAndresLopez@github.com</text><text x="28.055999999999997" y="1.67" class="M">:</text><text x="29.058" y="1.67" class="N">~</text><text x="30.059999999999995" y="1.67" class="O">$</text><text x="32.064" y="1.67" class="M">w</text></svg><svg x="240"><use xlink:href="#a"></use><use xlink:href="#b" x="33.996" y="0"></use><text x="0" y="1.67" class="L">GermanAndresLopez@github.com</text><text x="28.055999999999997" y="1.67" class="M">:</text><text x="29.058" y="1.67" class="N">~</text><text x="30.059999999999995" y="1.67" class="O">$</text><text x="32.064" y="1.67" class="M">wh</text></svg><svg x="320"><use xlink:href="#a"></use><use xlink:href="#b" x="34.996" y="0"></use><text x="0" y="1.67" class="L">GermanAndresLopez@github.com</text><text x="28.055999999999997" y="1.67" class="M">:</text><text x="29.058" y="1.67" class="N">~</text><text x="30.059999999999995" y="1.67" class="O">$</text><text x="32.064" y="1.67" class="M">who</text></svg><svg x="400"><use xlink:href="#a"></use><use xlink:href="#b" x="35.996" y="0"></use><text x="0" y="1.67" class="L">GermanAndresLopez@github.com</text><text x="28.055999999999997" y="1.67" class="M">:</text><text x="29.058" y="1.67" class="N">~</text><text x="30.059999999999995" y="1.67" class="O">$</text><text x="32.064" y="1.67" class="M">whoa</text></svg><svg x="480"><use xlink:href="#a"></use><use xlink:href="#b" x="36.996" y="0"></use><text x="0" y="1.67" class="L">GermanAndresLopez@github.com</text><text x="28.055999999999997" y="1.67" class="M">:</text><text x="29.058" y="1.67" class="N">~</text><text x="30.059999999999995" y="1.67" class="O">$</text><text x="32.064" y="1.67" class="M">whoam</text></svg><svg x="560"><use xlink:href="#a"></use><use xlink:href="#b" x="37.996" y="0"></use><use xlink:href="#2" y="0"></use></svg><svg x="640"><use xlink:href="#a"></use><use xlink:href="#b" x="-0.0040000000000000036" y="2.146"></use><use xlink:href="#2" y="0"></use></svg><svg x="720"><use xlink:href="#a"></use><use xlink:href="#b" x="-0.0040000000000000036" y="4.317"></use><use xlink:href="#2" y="0"></use><use xlink:href="#3" y="2.171"></use></svg><svg x="800"><use xlink:href="#a"></use><use xlink:href="#b" x="31.996" y="4.317"></use><use xlink:href="#2" y="0"></use><use xlink:href="#3" y="2.171"></use><use xlink:href="#1" y="4.342"></use></svg><svg x="880"><use xlink:href="#a"></use><use xlink:href="#b" x="32.996" y="4.317"></use><use xlink:href="#2" y="0"></use><use xlink:href="#3" y="2.171"></use><text x="0" y="6.012" class="L">GermanAndresLopez@github.com</text><text x="28.055999999999997" y="6.012" class="M">:</text><text x="29.058" y="6.012" class="N">~</text><text x="30.059999999999995" y="6.012" class="O">$</text><text x="32.064" y="6.012" class="M">n</text></svg><svg x="960"><use xlink:href="#a"></use><use xlink:href="#b" x="33.996" y="4.317"></use><use xlink:href="#2" y="0"></use><use xlink:href="#3" y="2.171"></use><text x="0" y="6.012" class="L">GermanAndresLopez@github.com</text><text x="28.055999999999997" y="6.012" class="M">:</text><text x="29.058" y="6.012" class="N">~</text><text x="30.059999999999995" y="6.012" class="O">$</text><text x="32.064" y="6.012" class="M">ne</text></svg><svg x="1040"><use xlink:href="#a"></use><use xlink:href="#b" x="34.996" y="4.317"></use><use xlink:href="#2" y="0"></use><use xlink:href="#3" y="2.171"></use><text x="0" y="6.012" class="L">GermanAndresLopez@github.com</text><text x="28.055999999999997" y="6.012" class="M">:</text><text x="29.058" y="6.012" class="N">~</text><text x="30.059999999999995" y="6.012" class="O">$</text><text x="32.064" y="6.012" class="M">neo</text></svg><svg x="1120"><use xlink:href="#a"></use><use xlink:href="#b" x="35.996" y="4.317"></use><use xlink:href="#2" y="0"></use><use xlink:href="#3" y="2.171"></use><text x="0" y="6.012" class="L">GermanAndresLopez@github.com</text><text x="28.055999999999997" y="6.012" class="M">:</text><text x="29.058" y="6.012" class="N">~</text><text x="30.059999999999995" y="6.012" class="O">$</text><text x="32.064" y="6.012" class="M">neof</text></svg><svg x="1200"><use xlink:href="#a"></use><use xlink:href="#b" x="36.996" y="4.317"></use><use xlink:href="#2" y="0"></use><use xlink:href="#3" y="2.171"></use><text x="0" y="6.012" class="L">GermanAndresLopez@github.com</text><text x="28.055999999999997" y="6.012" class="M">:</text><text x="29.058" y="6.012" class="N">~</text><text x="30.059999999999995" y="6.012" class="O">$</text><text x="32.064" y="6.012" class="M">neofe</text></svg><svg x="1280"><use xlink:href="#a"></use><use xlink:href="#b" x="37.996" y="4.317"></use><use xlink:href="#2" y="0"></use><use xlink:href="#3" y="2.171"></use><text x="0" y="6.012" class="L">GermanAndresLopez@github.com</text><text x="28.055999999999997" y="6.012" class="M">:</text><text x="29.058" y="6.012" class="N">~</text><text x="30.059999999999995" y="6.012" class="O">$</text><text x="32.064" y="6.012" class="M">neofet</text></svg><svg x="1360"><use xlink:href="#a"></use><use xlink:href="#b" x="38.996" y="4.317"></use><use xlink:href="#2" y="0"></use><use xlink:href="#3" y="2.171"></use><text x="0" y="6.012" class="L">GermanAndresLopez@github.com</text><text x="28.055999999999997" y="6.012" class="M">:</text><text x="29.058" y="6.012" class="N">~</text><text x="30.059999999999995" y="6.012" class="O">$</text><text x="32.064" y="6.012" class="M">neofetc</text></svg><svg x="1440"><use xlink:href="#a"></use><use xlink:href="#b" x="39.996" y="4.317"></use><use xlink:href="#2" y="0"></use><use xlink:href="#3" y="2.171"></use><use xlink:href="#4" y="4.342"></use></svg><svg x="1520"><use xlink:href="#a"></use><use xlink:href="#b" x="-0.0040000000000000036" y="6.4879999999999995"></use><use xlink:href="#2" y="0"></use><use xlink:href="#3" y="2.171"></use><use xlink:href="#4" y="4.342"></use></svg><svg x="1600"><use xlink:href="#a"></use><use xlink:href="#b" x="-0.0040000000000000036" y="8.658999999999999"></use><use xlink:href="#2" y="0"></use><use xlink:href="#3" y="2.171"></use><use xlink:href="#4" y="4.342"></use><use xlink:href="#5" y="6.513"></use></svg><svg x="1680"><use xlink:href="#a"></use><use xlink:href="#b" x="-0.0040000000000000036" y="10.83"></use><use xlink:href="#2" y="0"></use><use xlink:href="#3" y="2.171"></use><use xlink:href="#4" y="4.342"></use><use xlink:href="#5" y="6.513"></use><use xlink:href="#6" y="8.684"></use></svg><svg x="1760"><use xlink:href="#a"></use><use xlink:href="#b" x="-0.0040000000000000036" y="13.001"></use><use xlink:href="#2" y="0"></use><use xlink:href="#3" y="2.171"></use><use xlink:href="#4" y="4.342"></use><use xlink:href="#5" y="6.513"></use><use xlink:href="#6" y="8.684"></use><use xlink:href="#7" y="10.855"></use></svg><svg x="1840"><use xlink:href="#a"></use><use xlink:href="#b" x="-0.0040000000000000036" y="15.171999999999999"></use><use xlink:href="#2" y="0"></use><use xlink:href="#3" y="2.171"></use><use xlink:href="#4" y="4.342"></use><use xlink:href="#5" y="6.513"></use><use xlink:href="#6" y="8.684"></use><use xlink:href="#7" y="10.855"></use><use xlink:href="#8" y="13.026"></use></svg><svg x="1920"><use xlink:href="#a"></use><use xlink:href="#b" x="-0.0040000000000000036" y="17.343"></use><use xlink:href="#2" y="0"></use><use xlink:href="#3" y="2.171"></use><use xlink:href="#4" y="4.342"></use><use xlink:href="#5" y="6.513"></use><use xlink:href="#6" y="8.684"></use><use xlink:href="#7" y="10.855"></use><use xlink:href="#8" y="13.026"></use><use xlink:href="#9" y="15.197"></use></svg><svg x="2000"><use xlink:href="#a"></use><use xlink:href="#b" x="-0.0040000000000000036" y="19.514000000000003"></use><use xlink:href="#2" y="0"></use><use xlink:href="#3" y="2.171"></use><use xlink:href="#4" y="4.342"></use><use xlink:href="#5" y="6.513"></use><use xlink:href="#6" y="8.684"></use><use xlink:href="#7" y="10.855"></use><use xlink:href="#8" y="13.026"></use><use xlink:href="#9" y="15.197"></use><use xlink:href="#10" y="17.368"></use></svg><svg x="2080"><use xlink:href="#a"></use><use xlink:href="#b" x="-0.0040000000000000036" y="21.685000000000002"></use><use xlink:href="#2" y="0"></use><use xlink:href="#3" y="2.171"></use><use xlink:href="#4" y="4.342"></use><use xlink:href="#5" y="6.513"></use><use xlink:href="#6" y="8.684"></use><use xlink:href="#7" y="10.855"></use><use xlink:href="#8" y="13.026"></use><use xlink:href="#9" y="15.197"></use><use xlink:href="#10" y="17.368"></use><use xlink:href="#11" y="19.539"></use></svg><svg x="2160"><use xlink:href="#a"></use><use xlink:href="#b" x="-0.0040000000000000036" y="23.855999999999998"></use><use xlink:href="#2" y="0"></use><use xlink:href="#3" y="2.171"></use><use xlink:href="#4" y="4.342"></use><use xlink:href="#5" y="6.513"></use><use xlink:href="#6" y="8.684"></use><use xlink:href="#7" y="10.855"></use><use xlink:href="#8" y="13.026"></use><use xlink:href="#9" y="15.197"></use><use xlink:href="#10" y="17.368"></use><use xlink:href="#11" y="19.539"></use><use xlink:href="#12" y="21.71"></use></svg><svg x="2240"><use xlink:href="#a"></use><use xlink:href="#b" x="-0.0040000000000000036" y="26.027"></use><use xlink:href="#2" y="0"></use><use xlink:href="#3" y="2.171"></use><use xlink:href="#4" y="4.342"></use><use xlink:href="#5" y="6.513"></use><use xlink:href="#6" y="8.684"></use><use xlink:href="#7" y="10.855"></use><use xlink:href="#8" y="13.026"></use><use xlink:href="#9" y="15.197"></use><use xlink:href="#10" y="17.368"></use><use xlink:href="#11" y="19.539"></use><use xlink:href="#12" y="21.71"></use><use xlink:href="#13" y="23.880999999999997"></use></svg><svg x="2320"><use xlink:href="#a"></use><use xlink:href="#b" x="-0.0040000000000000036" y="28.198000000000004"></use><use xlink:href="#2" y="0"></use><use xlink:href="#3" y="2.171"></use><use xlink:href="#4" y="4.342"></use><use xlink:href="#5" y="6.513"></use><use xlink:href="#6" y="8.684"></use><use xlink:href="#7" y="10.855"></use><use xlink:href="#8" y="13.026"></use><use xlink:href="#9" y="15.197"></use><use xlink:href="#10" y="17.368"></use><use xlink:href="#11" y="19.539"></use><use xlink:href="#12" y="21.71"></use><use xlink:href="#13" y="23.880999999999997"></use><use xlink:href="#14" y="26.052"></use></svg><svg x="2400"><use xlink:href="#a"></use><use xlink:href="#b" x="-0.0040000000000000036" y="30.369"></use><use xlink:href="#2" y="0"></use><use xlink:href="#3" y="2.171"></use><use xlink:href="#4" y="4.342"></use><use xlink:href="#5" y="6.513"></use><use xlink:href="#6" y="8.684"></use><use xlink:href="#7" y="10.855"></use><use xlink:href="#8" y="13.026"></use><use xlink:href="#9" y="15.197"></use><use xlink:href="#10" y="17.368"></use><use xlink:href="#11" y="19.539"></use><use xlink:href="#12" y="21.71"></use><use xlink:href="#13" y="23.880999999999997"></use><use xlink:href="#14" y="26.052"></use><use xlink:href="#15" y="28.223000000000003"></use></svg><svg x="2480"><use xlink:href="#a"></use><use xlink:href="#b" x="31.996" y="30.369"></use><use xlink:href="#2" y="0"></use><use xlink:href="#3" y="2.171"></use><use xlink:href="#4" y="4.342"></use><use xlink:href="#5" y="6.513"></use><use xlink:href="#6" y="8.684"></use><use xlink:href="#7" y="10.855"></use><use xlink:href="#8" y="13.026"></use><use xlink:href="#9" y="15.197"></use><use xlink:href="#10" y="17.368"></use><use xlink:href="#11" y="19.539"></use><use xlink:href="#12" y="21.71"></use><use xlink:href="#13" y="23.880999999999997"></use><use xlink:href="#14" y="26.052"></use><use xlink:href="#15" y="28.223000000000003"></use><use xlink:href="#1" y="30.394"></use></svg><svg x="2560"><use xlink:href="#a"></use><use xlink:href="#b" x="32.996" y="30.369"></use><use xlink:href="#2" y="0"></use><use xlink:href="#3" y="2.171"></use><use xlink:href="#4" y="4.342"></use><use xlink:href="#5" y="6.513"></use><use xlink:href="#6" y="8.684"></use><use xlink:href="#7" y="10.855"></use><use xlink:href="#8" y="13.026"></use><use xlink:href="#9" y="15.197"></use><use xlink:href="#10" y="17.368"></use><use xlink:href="#11" y="19.539"></use><use xlink:href="#12" y="21.71"></use><use xlink:href="#13" y="23.880999999999997"></use><use xlink:href="#14" y="26.052"></use><use xlink:href="#15" y="28.223000000000003"></use><text x="0" y="32.064" class="L">GermanAndresLopez@github.com</text><text x="28.055999999999997" y="32.064" class="M">:</text><text x="29.058" y="32.064" class="N">~</text><text x="30.059999999999995" y="32.064" class="O">$</text><text x="32.064" y="32.064" class="M">u</text></svg><svg x="2640"><use xlink:href="#a"></use><use xlink:href="#b" x="33.996" y="30.369"></use><use xlink:href="#2" y="0"></use><use xlink:href="#3" y="2.171"></use><use xlink:href="#4" y="4.342"></use><use xlink:href="#5" y="6.513"></use><use xlink:href="#6" y="8.684"></use><use xlink:href="#7" y="10.855"></use><use xlink:href="#8" y="13.026"></use><use xlink:href="#9" y="15.197"></use><use xlink:href="#10" y="17.368"></use><use xlink:href="#11" y="19.539"></use><use xlink:href="#12" y="21.71"></use><use xlink:href="#13" y="23.880999999999997"></use><use xlink:href="#14" y="26.052"></use><use xlink:href="#15" y="28.223000000000003"></use><text x="0" y="32.064" class="L">GermanAndresLopez@github.com</text><text x="28.055999999999997" y="32.064" class="M">:</text><text x="29.058" y="32.064" class="N">~</text><text x="30.059999999999995" y="32.064" class="O">$</text><text x="32.064" y="32.064" class="M">up</text></svg><svg x="2720"><use xlink:href="#a"></use><use xlink:href="#b" x="34.996" y="30.369"></use><use xlink:href="#2" y="0"></use><use xlink:href="#3" y="2.171"></use><use xlink:href="#4" y="4.342"></use><use xlink:href="#5" y="6.513"></use><use xlink:href="#6" y="8.684"></use><use xlink:href="#7" y="10.855"></use><use xlink:href="#8" y="13.026"></use><use xlink:href="#9" y="15.197"></use><use xlink:href="#10" y="17.368"></use><use xlink:href="#11" y="19.539"></use><use xlink:href="#12" y="21.71"></use><use xlink:href="#13" y="23.880999999999997"></use><use xlink:href="#14" y="26.052"></use><use xlink:href="#15" y="28.223000000000003"></use><text x="0" y="32.064" class="L">GermanAndresLopez@github.com</text><text x="28.055999999999997" y="32.064" class="M">:</text><text x="29.058" y="32.064" class="N">~</text><text x="30.059999999999995" y="32.064" class="O">$</text><text x="32.064" y="32.064" class="M">upt</text></svg><svg x="2800"><use xlink:href="#a"></use><use xlink:href="#b" x="35.996" y="30.369"></use><use xlink:href="#2" y="0"></use><use xlink:href="#3" y="2.171"></use><use xlink:href="#4" y="4.342"></use><use xlink:href="#5" y="6.513"></use><use xlink:href="#6" y="8.684"></use><use xlink:href="#7" y="10.855"></use><use xlink:href="#8" y="13.026"></use><use xlink:href="#9" y="15.197"></use><use xlink:href="#10" y="17.368"></use><use xlink:href="#11" y="19.539"></use><use xlink:href="#12" y="21.71"></use><use xlink:href="#13" y="23.880999999999997"></use><use xlink:href="#14" y="26.052"></use><use xlink:href="#15" y="28.223000000000003"></use><text x="0" y="32.064" class="L">GermanAndresLopez@github.com</text><text x="28.055999999999997" y="32.064" class="M">:</text><text x="29.058" y="32.064" class="N">~</text><text x="30.059999999999995" y="32.064" class="O">$</text><text x="32.064" y="32.064" class="M">upti</text></svg><svg x="2880"><use xlink:href="#a"></use><use xlink:href="#b" x="36.996" y="30.369"></use><use xlink:href="#2" y="0"></use><use xlink:href="#3" y="2.171"></use><use xlink:href="#4" y="4.342"></use><use xlink:href="#5" y="6.513"></use><use xlink:href="#6" y="8.684"></use><use xlink:href="#7" y="10.855"></use><use xlink:href="#8" y="13.026"></use><use xlink:href="#9" y="15.197"></use><use xlink:href="#10" y="17.368"></use><use xlink:href="#11" y="19.539"></use><use xlink:href="#12" y="21.71"></use><use xlink:href="#13" y="23.880999999999997"></use><use xlink:href="#14" y="26.052"></use><use xlink:href="#15" y="28.223000000000003"></use><text x="0" y="32.064" class="L">GermanAndresLopez@github.com</text><text x="28.055999999999997" y="32.064" class="M">:</text><text x="29.058" y="32.064" class="N">~</text><text x="30.059999999999995" y="32.064" class="O">$</text><text x="32.064" y="32.064" class="M">uptim</text></svg><svg x="2960"><use xlink:href="#a"></use><use xlink:href="#b" x="37.996" y="30.369"></use><use xlink:href="#2" y="0"></use><use xlink:href="#3" y="2.171"></use><use xlink:href="#4" y="4.342"></use><use xlink:href="#5" y="6.513"></use><use xlink:href="#6" y="8.684"></use><use xlink:href="#7" y="10.855"></use><use xlink:href="#8" y="13.026"></use><use xlink:href="#9" y="15.197"></use><use xlink:href="#10" y="17.368"></use><use xlink:href="#11" y="19.539"></use><use xlink:href="#12" y="21.71"></use><use xlink:href="#13" y="23.880999999999997"></use><use xlink:href="#14" y="26.052"></use><use xlink:href="#15" y="28.223000000000003"></use><use xlink:href="#16" y="30.394"></use></svg><svg x="3040"><use xlink:href="#a"></use><use xlink:href="#b" x="-0.0040000000000000036" y="32.54"></use><use xlink:href="#2" y="0"></use><use xlink:href="#3" y="2.171"></use><use xlink:href="#4" y="4.342"></use><use xlink:href="#5" y="6.513"></use><use xlink:href="#6" y="8.684"></use><use xlink:href="#7" y="10.855"></use><use xlink:href="#8" y="13.026"></use><use xlink:href="#9" y="15.197"></use><use xlink:href="#10" y="17.368"></use><use xlink:href="#11" y="19.539"></use><use xlink:href="#12" y="21.71"></use><use xlink:href="#13" y="23.880999999999997"></use><use xlink:href="#14" y="26.052"></use><use xlink:href="#15" y="28.223000000000003"></use><use xlink:href="#16" y="30.394"></use></svg><svg x="3120"><use xlink:href="#a"></use><use xlink:href="#b" x="-0.0040000000000000036" y="34.711"></use><use xlink:href="#2" y="0"></use><use xlink:href="#3" y="2.171"></use><use xlink:href="#4" y="4.342"></use><use xlink:href="#5" y="6.513"></use><use xlink:href="#6" y="8.684"></use><use xlink:href="#7" y="10.855"></use><use xlink:href="#8" y="13.026"></use><use xlink:href="#9" y="15.197"></use><use xlink:href="#10" y="17.368"></use><use xlink:href="#11" y="19.539"></use><use xlink:href="#12" y="21.71"></use><use xlink:href="#13" y="23.880999999999997"></use><use xlink:href="#14" y="26.052"></use><use xlink:href="#15" y="28.223000000000003"></use><use xlink:href="#16" y="30.394"></use><use xlink:href="#17" y="32.565"></use></svg><svg x="3200"><use xlink:href="#a"></use><use xlink:href="#b" x="31.996" y="34.711"></use><use xlink:href="#2" y="0"></use><use xlink:href="#3" y="2.171"></use><use xlink:href="#4" y="4.342"></use><use xlink:href="#5" y="6.513"></use><use xlink:href="#6" y="8.684"></use><use xlink:href="#7" y="10.855"></use><use xlink:href="#8" y="13.026"></use><use xlink:href="#9" y="15.197"></use><use xlink:href="#10" y="17.368"></use><use xlink:href="#11" y="19.539"></use><use xlink:href="#12" y="21.71"></use><use xlink:href="#13" y="23.880999999999997"></use><use xlink:href="#14" y="26.052"></use><use xlink:href="#15" y="28.223000000000003"></use><use xlink:href="#16" y="30.394"></use><use xlink:href="#17" y="32.565"></use><use xlink:href="#1" y="34.736"></use></svg><svg x="3280"><use xlink:href="#a"></use><use xlink:href="#b" x="32.996" y="34.711"></use><use xlink:href="#2" y="0"></use><use xlink:href="#3" y="2.171"></use><use xlink:href="#4" y="4.342"></use><use xlink:href="#5" y="6.513"></use><use xlink:href="#6" y="8.684"></use><use xlink:href="#7" y="10.855"></use><use xlink:href="#8" y="13.026"></use><use xlink:href="#9" y="15.197"></use><use xlink:href="#10" y="17.368"></use><use xlink:href="#11" y="19.539"></use><use xlink:href="#12" y="21.71"></use><use xlink:href="#13" y="23.880999999999997"></use><use xlink:href="#14" y="26.052"></use><use xlink:href="#15" y="28.223000000000003"></use><use xlink:href="#16" y="30.394"></use><use xlink:href="#17" y="32.565"></use><text x="0" y="36.406" class="L">GermanAndresLopez@github.com</text><text x="28.055999999999997" y="36.406" class="M">:</text><text x="29.058" y="36.406" class="N">~</text><text x="30.059999999999995" y="36.406" class="O">$</text><text x="32.064" y="36.406" class="M">e</text></svg><svg x="3360"><use xlink:href="#a"></use><use xlink:href="#b" x="33.996" y="34.711"></use><use xlink:href="#2" y="0"></use><use xlink:href="#3" y="2.171"></use><use xlink:href="#4" y="4.342"></use><use xlink:href="#5" y="6.513"></use><use xlink:href="#6" y="8.684"></use><use xlink:href="#7" y="10.855"></use><use xlink:href="#8" y="13.026"></use><use xlink:href="#9" y="15.197"></use><use xlink:href="#10" y="17.368"></use><use xlink:href="#11" y="19.539"></use><use xlink:href="#12" y="21.71"></use><use xlink:href="#13" y="23.880999999999997"></use><use xlink:href="#14" y="26.052"></use><use xlink:href="#15" y="28.223000000000003"></use><use xlink:href="#16" y="30.394"></use><use xlink:href="#17" y="32.565"></use><text x="0" y="36.406" class="L">GermanAndresLopez@github.com</text><text x="28.055999999999997" y="36.406" class="M">:</text><text x="29.058" y="36.406" class="N">~</text><text x="30.059999999999995" y="36.406" class="O">$</text><text x="32.064" y="36.406" class="M">ex</text></svg><svg x="3440"><use xlink:href="#a"></use><use xlink:href="#b" x="34.996" y="34.711"></use><use xlink:href="#2" y="0"></use><use xlink:href="#3" y="2.171"></use><use xlink:href="#4" y="4.342"></use><use xlink:href="#5" y="6.513"></use><use xlink:href="#6" y="8.684"></use><use xlink:href="#7" y="10.855"></use><use xlink:href="#8" y="13.026"></use><use xlink:href="#9" y="15.197"></use><use xlink:href="#10" y="17.368"></use><use xlink:href="#11" y="19.539"></use><use xlink:href="#12" y="21.71"></use><use xlink:href="#13" y="23.880999999999997"></use><use xlink:href="#14" y="26.052"></use><use xlink:href="#15" y="28.223000000000003"></use><use xlink:href="#16" y="30.394"></use><use xlink:href="#17" y="32.565"></use><text x="0" y="36.406" class="L">GermanAndresLopez@github.com</text><text x="28.055999999999997" y="36.406" class="M">:</text><text x="29.058" y="36.406" class="N">~</text><text x="30.059999999999995" y="36.406" class="O">$</text><text x="32.064" y="36.406" class="M">exi</text></svg><svg x="3520"><use xlink:href="#a"></use><use xlink:href="#b" x="35.996" y="34.711"></use><use xlink:href="#2" y="0"></use><use xlink:href="#3" y="2.171"></use><use xlink:href="#4" y="4.342"></use><use xlink:href="#5" y="6.513"></use><use xlink:href="#6" y="8.684"></use><use xlink:href="#7" y="10.855"></use><use xlink:href="#8" y="13.026"></use><use xlink:href="#9" y="15.197"></use><use xlink:href="#10" y="17.368"></use><use xlink:href="#11" y="19.539"></use><use xlink:href="#12" y="21.71"></use><use xlink:href="#13" y="23.880999999999997"></use><use xlink:href="#14" y="26.052"></use><use xlink:href="#15" y="28.223000000000003"></use><use xlink:href="#16" y="30.394"></use><use xlink:href="#17" y="32.565"></use><use xlink:href="#18" y="34.736"></use></svg><svg x="3600"><use xlink:href="#a"></use><use xlink:href="#b" x="-0.0040000000000000036" y="36.882000000000005"></use><use xlink:href="#2" y="0"></use><use xlink:href="#3" y="2.171"></use><use xlink:href="#4" y="4.342"></use><use xlink:href="#5" y="6.513"></use><use xlink:href="#6" y="8.684"></use><use xlink:href="#7" y="10.855"></use><use xlink:href="#8" y="13.026"></use><use xlink:href="#9" y="15.197"></use><use xlink:href="#10" y="17.368"></use><use xlink:href="#11" y="19.539"></use><use xlink:href="#12" y="21.71"></use><use xlink:href="#13" y="23.880999999999997"></use><use xlink:href="#14" y="26.052"></use><use xlink:href="#15" y="28.223000000000003"></use><use xlink:href="#16" y="30.394"></use><use xlink:href="#17" y="32.565"></use><use xlink:href="#18" y="34.736"></use></svg><svg x="3680"><use xlink:href="#a"></use><use xlink:href="#b" x="-0.0040000000000000036" y="39.053000000000004"></use><use xlink:href="#2" y="0"></use><use xlink:href="#3" y="2.171"></use><use xlink:href="#4" y="4.342"></use><use xlink:href="#5" y="6.513"></use><use xlink:href="#6" y="8.684"></use><use xlink:href="#7" y="10.855"></use><use xlink:href="#8" y="13.026"></use><use xlink:href="#9" y="15.197"></use><use xlink:href="#10" y="17.368"></use><use xlink:href="#11" y="19.539"></use><use xlink:href="#12" y="21.71"></use><use xlink:href="#13" y="23.880999999999997"></use><use xlink:href="#14" y="26.052"></use><use xlink:href="#15" y="28.223000000000003"></use><use xlink:href="#16" y="30.394"></use><use xlink:href="#17" y="32.565"></use><use xlink:href="#18" y="34.736"></use><use xlink:href="#19" y="36.907000000000004"></use></svg><svg x="3760"><use xlink:href="#a"></use><use xlink:href="#b" x="-0.0040000000000000036" y="41.224"></use><use xlink:href="#2" y="0"></use><use xlink:href="#3" y="2.171"></use><use xlink:href="#4" y="4.342"></use><use xlink:href="#5" y="6.513"></use><use xlink:href="#6" y="8.684"></use><use xlink:href="#7" y="10.855"></use><use xlink:href="#8" y="13.026"></use><use xlink:href="#9" y="15.197"></use><use xlink:href="#10" y="17.368"></use><use xlink:href="#11" y="19.539"></use><use xlink:href="#12" y="21.71"></use><use xlink:href="#13" y="23.880999999999997"></use><use xlink:href="#14" y="26.052"></use><use xlink:href="#15" y="28.223000000000003"></use><use xlink:href="#16" y="30.394"></use><use xlink:href="#17" y="32.565"></use><use xlink:href="#18" y="34.736"></use><use xlink:href="#19" y="36.907000000000004"></use></svg></svg></g></g></svg></svg>